#tb 0: 1/90000
0,          0,          0,        0,    55296, 0x6a3202a3
0,       3003,       3003,        0,    55296, 0x2af202eb
0,       6006,       6006,        0,    55296, 0xa1a40388
0,       9009,       9009,        0,    55296, 0x61c90426
0,      12012,      12012,        0,    55296, 0x17720594
0,      15015,      15015,        0,    55296, 0x49440805
0,      18018,      18018,        0,    55296, 0x5b2e0d32
0,      21021,      21021,        0,    55296, 0x207891c1
0,      24024,      24024,        0,    55296, 0x502da4cd
0,      27027,      27027,        0,    55296, 0x75a22a75
0,      30030,      30030,        0,    55296, 0xd55099af
0,      33033,      33033,        0,    55296, 0x48778bb6
0,      36036,      36036,        0,    55296, 0xe76b7df7
0,      39039,      39039,        0,    55296, 0x5a049f33
0,      42042,      42042,        0,    55296, 0xc83d9b90
0,      45045,      45045,        0,    55296, 0x567877b8
0,      48048,      48048,        0,    55296, 0x334c7f6e
0,      51051,      51051,        0,    55296, 0x8717945c
0,      54054,      54054,        0,    55296, 0xe432831e
0,      57057,      57057,        0,    55296, 0x032e8d2d
0,      60060,      60060,        0,    55296, 0x37109fd6
0,      63063,      63063,        0,    55296, 0xe9b0b61b
0,      66066,      66066,        0,    55296, 0x7385dae8
0,      69069,      69069,        0,    55296, 0x74b8a9f5
0,      72072,      72072,        0,    55296, 0xbce2e218
0,      75075,      75075,        0,    55296, 0x0ab6c623
0,      78078,      78078,        0,    55296, 0x2234d6d6
0,      81081,      81081,        0,    55296, 0xd18be4d6
0,      84084,      84084,        0,    55296, 0x5247ecc9
0,      87087,      87087,        0,    55296, 0xc89f10ca
0,      90090,      90090,        0,    55296, 0x16181f87
0,      93093,      93093,        0,    55296, 0x893bfa85
0,      96096,      96096,        0,    55296, 0x1fd9f1c0
0,      99099,      99099,        0,    55296, 0xa2e8e6a9
0,     102102,     102102,        0,    55296, 0x1b42dfd5
0,     105105,     105105,        0,    55296, 0x0fa9f509
0,     108108,     108108,        0,    55296, 0x4449c216
0,     111111,     111111,        0,    55296, 0xb66baa36
0,     114114,     114114,        0,    55296, 0x38c19f3b
0,     117117,     117117,        0,    55296, 0xcdce83a0
0,     120120,     120120,        0,    55296, 0xac4ea82b
0,     123123,     123123,        0,    55296, 0xb77a6979
0,     126126,     126126,        0,    55296, 0xc8834ec2
0,     129129,     129129,        0,    55296, 0x181d3f0f
0,     132132,     132132,        0,    55296, 0x2ae04252
0,     135135,     135135,        0,    55296, 0x07633c18
0,     138138,     138138,        0,    55296, 0xdc6a3340
0,     141141,     141141,        0,    55296, 0xa456ebb1
0,     144144,     144144,        0,    55296, 0xbf7de5e2
0,     147147,     147147,        0,    55296, 0x54a1c39b
0,     150150,     150150,        0,    55296, 0x08fc9423
0,     153153,     153153,        0,    55296, 0x926f968a
0,     156156,     156156,        0,    55296, 0x5c908481
0,     159159,     159159,        0,    55296, 0x6b257f16
0,     162162,     162162,        0,    55296, 0xbaf8658a
0,     165165,     165165,        0,    55296, 0x61c957b1
0,     168168,     168168,        0,    55296, 0xa6d181ff
0,     171171,     171171,        0,    55296, 0xef476e69
0,     174174,     174174,        0,    55296, 0x74f72f9a
0,     177177,     177177,        0,    55296, 0x3a9328e9
0,     180180,     180180,        0,    55296, 0xbe962874
0,     183183,     183183,        0,    55296, 0x5f8b58cc
0,     186186,     186186,        0,    55296, 0x1e066d22
0,     189189,     189189,        0,    55296, 0x9ef72b34
0,     192192,     192192,        0,    55296, 0x525c2bb1
0,     195195,     195195,        0,    55296, 0x8e5a20a3
0,     198198,     198198,        0,    55296, 0x1c6723d0
0,     201201,     201201,        0,    55296, 0x2b1023c8
0,     204204,     204204,        0,    55296, 0x8f682691
0,     207207,     207207,        0,    55296, 0x3a0624f5
0,     210210,     210210,        0,    55296, 0xbc1046fb
0,     213213,     213213,        0,    55296, 0x2859470e
0,     216216,     216216,        0,    55296, 0x61d45a12
0,     219219,     219219,        0,    55296, 0xa68853b6
0,     222222,     222222,        0,    55296, 0x36543ce4
0,     225225,     225225,        0,    55296, 0x95b953d4
0,     228228,     228228,        0,    55296, 0x804b3c53
0,     231231,     231231,        0,    55296, 0x743960f6
0,     234234,     234234,        0,    55296, 0x23916b9c
0,     237237,     237237,        0,    55296, 0x8f5a59e3
0,     240240,     240240,        0,    55296, 0xf1285f83
0,     243243,     243243,        0,    55296, 0xde75640f
0,     246246,     246246,        0,    55296, 0xde146188
0,     249249,     249249,        0,    55296, 0xb5315cc9
0,     252252,     252252,        0,    55296, 0xa85f6861
0,     255255,     255255,        0,    55296, 0x4fda562f
0,     258258,     258258,        0,    55296, 0xa0185863
0,     261261,     261261,        0,    55296, 0xe4dc5a5f
0,     264264,     264264,        0,    55296, 0x8a2aabb6
0,     267267,     267267,        0,    55296, 0x3ba89b4f
0,     270270,     270270,        0,    55296, 0x82b07c21
0,     273273,     273273,        0,    55296, 0xb7998478
0,     276276,     276276,        0,    55296, 0xceca8046
0,     279279,     279279,        0,    55296, 0xe652b325
0,     282282,     282282,        0,    55296, 0xc26bb607
0,     285285,     285285,        0,    55296, 0x40c99200
0,     288288,     288288,        0,    55296, 0x61bc9b27
0,     291291,     291291,        0,    55296, 0x1e4baa30
0,     294294,     294294,        0,    55296, 0xd8a7adb0
0,     297297,     297297,        0,    55296, 0x0d0aa8fb
0,     300300,     300300,        0,    55296, 0x1f1ba33c
0,     303303,     303303,        0,    55296, 0xa000a80b
0,     306306,     306306,        0,    55296, 0xb49dd332
0,     309309,     309309,        0,    55296, 0x6b8ac499
0,     312312,     312312,        0,    55296, 0x9636ed15
0,     315315,     315315,        0,    55296, 0xa152f03d
0,     318318,     318318,        0,    55296, 0x47a8cfc7
0,     321321,     321321,        0,    55296, 0x9f94c82a
0,     324324,     324324,        0,    55296, 0xe208d626
0,     327327,     327327,        0,    55296, 0x28cc0616
0,     330330,     330330,        0,    55296, 0xc545179e
0,     333333,     333333,        0,    55296, 0xdf9205af
0,     336336,     336336,        0,    55296, 0x31d6ed99
0,     339339,     339339,        0,    55296, 0x866bf86e
0,     342342,     342342,        0,    55296, 0x0490fbd1
0,     345345,     345345,        0,    55296, 0xe1102987
0,     348348,     348348,        0,    55296, 0x7f860c29
0,     351351,     351351,        0,    55296, 0xc3a91f7a
0,     354354,     354354,        0,    55296, 0x69641a52
0,     357357,     357357,        0,    55296, 0x05b12204
0,     360360,     360360,        0,    55296, 0x715b6206
0,     363363,     363363,        0,    55296, 0xdcf55139
0,     366366,     366366,        0,    55296, 0x1369f746
0,     369369,     369369,        0,    55296, 0xc1533ef5
0,     372372,     372372,        0,    55296, 0xc00ff85f
0,     375375,     375375,        0,    55296, 0x4f5f70dc
0,     378378,     378378,        0,    55296, 0x85720ccc
0,     381381,     381381,        0,    55296, 0xfdff0780
0,     384384,     384384,        0,    55296, 0x57ef04ff
0,     387387,     387387,        0,    55296, 0xbf94041f
0,     390390,     390390,        0,    55296, 0x4cee0392
0,     393393,     393393,        0,    55296, 0x80160314
0,     396396,     396396,        0,    55296, 0x396802af
